<svg width="70" height="70" viewBox="0 0 70 70" fill="none" xmlns="http://www.w3.org/2000/svg">
<rect width="70" height="70" fill="#313A40"/>
<path d="M34.6484 37.1836C28.8594 35.5195 24.6406 33.4805 21.9922 31.0664C19.3672 28.6289 18.0547 25.6289 18.0547 22.0664C18.0547 18.0352 19.6602 14.707 22.8711 12.082C26.1055 9.43359 30.3008 8.10938 35.457 8.10938C38.9727 8.10938 42.1016 8.78906 44.8438 10.1484C47.6094 11.5078 49.7422 13.3828 51.2422 15.7734C52.7656 18.1641 53.5273 20.7773 53.5273 23.6133H46.7422C46.7422 20.5195 45.7578 18.0938 43.7891 16.3359C41.8203 14.5547 39.043 13.6641 35.457 13.6641C32.1289 13.6641 29.5273 14.4023 27.6523 15.8789C25.8008 17.332 24.875 19.3594 24.875 21.9609C24.875 24.0469 25.7539 25.8164 27.5117 27.2695C29.293 28.6992 32.3047 30.0117 36.5469 31.207C40.8125 32.4023 44.1406 33.7266 46.5312 35.1797C48.9453 36.6094 50.7266 38.2852 51.875 40.207C53.0469 42.1289 53.6328 44.3906 53.6328 46.9922C53.6328 51.1406 52.0156 54.4688 48.7812 56.9766C45.5469 59.4609 41.2227 60.7031 35.8086 60.7031C32.293 60.7031 29.0117 60.0352 25.9648 58.6992C22.918 57.3398 20.5625 55.4883 18.8984 53.1445C17.2578 50.8008 16.4375 48.1406 16.4375 45.1641H23.2227C23.2227 48.2578 24.3594 50.707 26.6328 52.5117C28.9297 54.293 31.9883 55.1836 35.8086 55.1836C39.3711 55.1836 42.1016 54.457 44 53.0039C45.8984 51.5508 46.8477 49.5703 46.8477 47.0625C46.8477 44.5547 45.9688 42.6211 44.2109 41.2617C42.4531 39.8789 39.2656 38.5195 34.6484 37.1836Z" fill="#F2E6D8"/>
</svg>
