<?xml version="1.0" standalone="no"?>
<!DOCTYPE svg PUBLIC "-//W3C//DTD SVG 20010904//EN"
 "http://www.w3.org/TR/2001/REC-SVG-20010904/DTD/svg10.dtd">
<svg version="1.0" xmlns="http://www.w3.org/2000/svg"
 width="700.000000pt" height="700.000000pt" viewBox="0 0 700.000000 700.000000"
 preserveAspectRatio="xMidYMid meet">
<metadata>
Created by potrace 1.11, written by Peter Selinger 2001-2013
</metadata>
<g transform="translate(0.000000,700.000000) scale(0.100000,-0.100000)"
fill="#000000" stroke="none">
<path d="M0 3500 l0 -3500 3500 0 3500 0 0 3500 0 3500 -3500 0 -3500 0 0
-3500z m3889 2665 c412 -58 762 -225 1027 -490 262 -261 411 -584 431 -932 l6
-103 -341 0 -342 0 0 69 c0 143 -51 326 -126 455 -128 218 -360 373 -654 438
-93 20 -133 22 -345 23 -216 0 -250 -2 -345 -23 -374 -84 -605 -275 -685 -567
-25 -92 -31 -294 -11 -380 81 -342 383 -546 1146 -774 419 -125 624 -201 852
-317 374 -191 607 -410 744 -699 78 -166 114 -342 114 -566 0 -351 -115 -644
-343 -872 -342 -342 -877 -516 -1517 -494 -325 12 -603 70 -866 183 -591 252
-931 680 -984 1239 -5 61 -10 113 -10 118 0 4 152 7 339 7 l339 0 7 -77 c21
-235 92 -403 236 -557 169 -180 430 -303 744 -348 144 -20 475 -15 615 10 418
76 673 284 745 606 27 120 18 333 -19 441 -72 209 -209 342 -491 475 -203 96
-290 127 -845 300 -921 288 -1389 679 -1485 1244 -19 114 -19 338 0 449 42
240 151 456 322 638 280 296 675 473 1163 519 132 12 443 4 579 -15z"/>
</g>
</svg>
